<?xml version="1.0" encoding="UTF-8" standalone="no"?>
<svg xmlns="http://www.w3.org/2000/svg" version="1.2" baseProfile="tiny" viewBox="0.00 0.00 490.00 386.00">
<g stroke-width="2.00" fill="none" stroke-linecap="butt">
<path stroke="#dc9485" vector-effect="non-scaling-stroke" d="
  M 236.01 130.64
  L 255.78 130.64
  A 1.14 1.13 72.7 0 1 256.72 131.14
  Q 257.99 133.01 259.50 133.01
  Q 268.00 133.05 276.50 133.03
  Q 280.42 133.02 281.59 129.35
  C 282.97 125.04 277.39 123.95 276.64 127.31
  Q 276.53 127.81 276.01 127.81
  L 261.50 127.80
  A 0.55 0.55 0.0 0 1 260.95 127.25
  L 260.94 117.75
  A 0.32 0.31 90.0 0 1 261.25 117.43
  L 275.85 117.44
  Q 276.40 117.44 276.55 117.97
  Q 277.00 119.59 278.75 119.98
  A 2.40 2.40 0.0 0 0 281.63 118.15
  C 282.49 114.14 279.33 112.29 275.65 112.25
  Q 269.20 112.18 262.75 112.26
  Q 258.43 112.31 256.22 114.18
  Q 255.85 114.50 255.37 114.53
  C 243.39 115.28 231.04 114.77 219.02 114.77
  Q 214.67 114.77 213.05 115.35
  C 207.99 117.14 206.68 124.24 210.28 127.98
  Q 214.15 132.01 227.88 145.54
  Q 228.23 145.89 228.65 145.63
  Q 236.14 141.02 244.93 141.18
  Q 245.80 141.20 245.19 140.59
  L 235.78 131.20
  Q 235.22 130.64 236.01 130.64"
/>
<path stroke="#dc9485" vector-effect="non-scaling-stroke" d="
  M 270.57 166.84
  C 263.88 139.81 225.79 139.37 219.40 166.80
  Q 219.30 167.25 219.76 167.25
  L 270.25 167.25
  A 0.33 0.33 0.0 0 0 270.57 166.84"
/>
<path stroke="#dc9485" vector-effect="non-scaling-stroke" d="
  M 307.18 198.68
  Q 307.33 199.15 307.52 199.64
  Q 307.69 200.09 307.93 199.68
  Q 308.06 199.45 308.07 199.00
  Q 308.08 189.15 308.05 179.29
  C 308.04 175.61 306.74 172.54 302.75 172.54
  Q 244.68 172.53 186.95 172.54
  A 5.01 5.01 0.0 0 0 181.94 177.54
  L 181.93 199.48
  Q 181.92 200.76 182.40 199.57
  C 182.78 198.65 182.85 197.50 183.28 196.53
  Q 189.24 183.04 204.25 183.04
  Q 243.20 183.04 282.15 183.06
  Q 290.59 183.06 294.47 184.51
  Q 303.88 188.02 307.18 198.68"
/>
<path stroke="#dc9485" vector-effect="non-scaling-stroke" d="
  M 302.6692 203.6093
  A 15.34 15.34 0.0 0 0 287.3024 188.2961
  L 202.6225 188.4439
  A 15.34 15.34 0.0 0 0 187.3093 203.8107
  L 187.3108 204.6707
  A 15.34 15.34 0.0 0 0 202.6776 219.9839
  L 287.3575 219.8361
  A 15.34 15.34 0.0 0 0 302.6707 204.4693
  L 302.6692 203.6093"
/>
<path stroke="#dc9485" vector-effect="non-scaling-stroke" d="
  M 71.14 244.52
  A 0.26 0.26 0.0 0 0 70.88 244.26
  L 63.96 244.26
  A 0.26 0.26 0.0 0 0 63.70 244.52
  L 63.70 251.44
  A 0.26 0.26 0.0 0 0 63.96 251.70
  L 70.88 251.70
  A 0.26 0.26 0.0 0 0 71.14 251.44
  L 71.14 244.52"
/>
<path stroke="#dccb84" vector-effect="non-scaling-stroke" d="
  M 211.49 258.50
  L 214.90 258.50
  Q 216.06 258.50 216.06 257.35
  L 216.08 251.79
  Q 216.08 251.00 215.29 251.00
  L 211.49 251.00
  Q 210.98 251.00 210.98 250.49
  L 210.96 244.48
  Q 210.96 244.25 210.73 244.25
  L 203.78 244.25
  Q 203.54 244.25 203.54 244.49
  Q 203.49 256.10 203.54 267.89
  C 203.59 276.81 205.20 280.68 214.71 280.87
  Q 216.05 280.90 216.05 279.56
  L 216.06 274.41
  Q 216.06 273.27 214.91 273.26
  L 211.59 273.22
  Q 210.98 273.21 210.98 272.59
  L 210.97 259.01
  Q 210.97 258.50 211.49 258.50"
/>
<path stroke="#dc9485" vector-effect="non-scaling-stroke" d="
  M 277.3965 244.5135
  A 0.26 0.26 0.0 0 0 277.1360 244.2540
  L 270.2360 244.2660
  A 0.26 0.26 0.0 0 0 269.9765 244.5265
  L 269.9835 248.5665
  A 0.26 0.26 0.0 0 0 270.2440 248.8260
  L 277.1440 248.8140
  A 0.26 0.26 0.0 0 0 277.4035 248.5535
  L 277.3965 244.5135"
/>
<path stroke="#dc9485" vector-effect="non-scaling-stroke" d="
  M 320.14 266.50
  C 324.59 266.51 330.28 266.96 333.98 265.74
  C 342.58 262.91 343.39 248.95 335.25 245.42
  C 330.64 243.41 321.60 244.23 315.71 244.26
  Q 315.36 244.26 315.36 244.61
  L 315.33 248.06
  A 0.44 0.43 90.0 0 0 315.76 248.50
  Q 323.06 248.50 330.75 248.70
  Q 336.26 248.84 336.53 254.75
  C 336.84 261.57 333.19 262.19 327.29 262.21
  Q 321.59 262.23 315.84 262.26
  Q 315.35 262.27 315.35 262.75
  L 315.33 280.29
  A 0.46 0.46 0.0 0 0 315.79 280.75
  L 319.27 280.76
  A 0.36 0.36 0.0 0 0 319.63 280.40
  L 319.62 267.02
  Q 319.62 266.50 320.14 266.50"
/>
<path stroke="#dc9485" vector-effect="non-scaling-stroke" d="
  M 420.29 244.23
  A 0.31 0.31 0.0 0 0 420.04 244.36
  L 410.41 257.67
  A 0.31 0.31 0.0 0 1 409.91 257.67
  L 400.01 244.37
  A 0.31 0.31 0.0 0 0 399.76 244.25
  L 395.11 244.24
  A 0.31 0.31 0.0 0 0 394.86 244.73
  L 420.91 280.62
  A 0.31 0.31 0.0 0 0 421.16 280.75
  L 425.67 280.76
  A 0.31 0.31 0.0 0 0 425.92 280.27
  L 412.92 261.92
  A 0.31 0.31 0.0 0 1 412.92 261.56
  L 425.01 244.76
  A 0.31 0.31 0.0 0 0 424.76 244.27
  L 420.29 244.23"
/>
<path stroke="#dccb84" vector-effect="non-scaling-stroke" d="
  M 81.76 252.48
  L 81.79 251.53
  Q 81.81 251.00 81.28 251.00
  L 74.97 251.00
  Q 74.44 251.00 74.44 251.53
  L 74.43 280.47
  Q 74.43 280.76 74.72 280.76
  L 81.50 280.75
  A 0.30 0.30 0.0 0 0 81.80 280.45
  Q 81.77 271.69 81.82 262.51
  C 81.83 259.23 84.13 257.96 87.18 257.98
  C 89.48 257.99 93.29 257.44 94.45 260.07
  Q 95.61 262.71 95.57 266.50
  Q 95.51 273.69 95.48 280.29
  Q 95.48 280.75 95.94 280.75
  L 102.49 280.75
  Q 102.89 280.75 102.89 280.35
  Q 102.89 273.18 102.93 265.56
  C 102.99 253.76 96.30 248.84 85.01 251.31
  C 83.98 251.54 83.22 252.32 82.26 252.80
  Q 81.75 253.06 81.76 252.48"
/>
<path stroke="#dccb84" vector-effect="non-scaling-stroke" d="
  M 146.45 268.25
  L 167.26 268.25
  Q 167.80 268.25 167.83 267.71
  C 168.27 260.81 166.12 253.64 158.67 251.59
  C 151.25 249.55 141.13 250.97 138.59 259.55
  C 136.92 265.16 137.33 273.29 141.97 277.42
  C 149.16 283.80 165.12 282.33 167.07 271.16
  Q 167.14 270.75 166.72 270.75
  L 160.28 270.75
  Q 159.81 270.75 159.52 271.11
  C 157.02 274.22 153.51 274.11 149.68 273.51
  A 5.03 5.02 -11.8 0 1 146.22 271.25
  L 145.46 270.06
  Q 144.29 268.25 146.45 268.25"
/>
<path stroke="#dccb84" vector-effect="non-scaling-stroke" d="
  M 178.60 252.29
  L 178.69 251.51
  A 0.44 0.43 -86.5 0 0 178.26 251.02
  L 171.73 251.00
  Q 171.20 251.00 171.20 251.52
  L 171.20 280.48
  A 0.28 0.27 0.0 0 0 171.48 280.75
  L 178.25 280.75
  A 0.29 0.28 0.0 0 0 178.54 280.47
  Q 178.57 272.85 178.31 264.76
  C 178.09 257.75 181.88 257.87 187.37 258.01
  C 191.63 258.13 192.21 261.96 192.22 265.50
  Q 192.26 273.18 192.24 280.30
  Q 192.24 280.76 192.70 280.76
  L 199.24 280.75
  Q 199.64 280.75 199.64 280.35
  Q 199.71 273.06 199.71 265.25
  C 199.70 256.09 196.04 250.79 186.38 250.74
  Q 182.55 250.72 179.09 252.62
  Q 178.52 252.93 178.60 252.29"
/>
<path stroke="#dccb84" vector-effect="non-scaling-stroke" d="
  M 240.69 253.92
  C 232.68 247.56 221.35 251.45 218.83 261.25
  C 216.78 269.21 220.34 278.60 229.05 280.58
  Q 235.69 282.08 240.07 278.03
  Q 241.07 277.10 241.06 278.47
  L 241.04 280.15
  Q 241.04 280.76 241.65 280.76
  L 247.99 280.75
  Q 248.48 280.75 248.48 280.26
  L 248.48 251.99
  Q 248.48 251.00 247.49 251.00
  L 242.03 251.01
  Q 241.07 251.01 241.08 251.97
  L 241.09 253.72
  Q 241.09 254.23 240.69 253.92"
/>
<path stroke="#dccb84" vector-effect="non-scaling-stroke" d="
  M 259.26 252.37
  Q 259.25 251.95 259.08 251.55
  Q 258.85 251.01 258.26 251.01
  L 252.24 251.00
  Q 251.74 251.00 251.74 251.51
  L 251.73 280.49
  Q 251.73 280.76 251.99 280.76
  L 258.77 280.75
  A 0.37 0.36 -0.8 0 0 259.14 280.38
  Q 259.02 266.87 259.16 262.50
  Q 259.33 257.04 266.32 258.06
  A 0.27 0.27 0.0 0 0 266.63 257.79
  L 266.64 251.08
  Q 266.64 250.90 266.46 250.88
  Q 262.76 250.54 259.86 252.67
  Q 259.28 253.10 259.26 252.37"
/>
<path stroke="#dccb84" vector-effect="non-scaling-stroke" d="
  M 298.80 259.00
  Q 299.02 259.45 299.07 259.94
  A 0.64 0.63 86.4 0 0 299.70 260.50
  L 305.33 260.50
  Q 305.95 260.50 305.92 259.87
  C 305.38 250.73 296.16 250.29 289.27 250.90
  Q 279.54 251.76 281.07 261.47
  C 282.11 268.09 292.46 268.68 297.85 269.67
  A 2.02 2.02 0.0 0 1 299.49 271.41
  Q 299.74 273.50 297.48 273.61
  Q 294.00 273.80 290.50 273.81
  Q 287.25 273.82 287.52 271.35
  A 0.55 0.54 -87.1 0 0 286.98 270.75
  L 281.25 270.75
  Q 280.65 270.75 280.68 271.35
  Q 281.09 279.92 290.04 280.81
  C 296.58 281.45 305.21 281.16 306.24 273.51
  Q 307.37 265.10 299.07 263.14
  Q 293.91 261.93 288.51 260.68
  A 1.39 1.39 0.0 0 1 287.94 258.25
  Q 288.53 257.76 289.48 257.78
  C 292.49 257.82 295.07 257.51 298.01 258.34
  Q 298.55 258.50 298.80 259.00"
/>
<path stroke="#dc9485" vector-effect="non-scaling-stroke" d="
  M 348.39 252.69
  Q 348.57 252.11 348.48 251.46
  Q 348.42 251.00 347.96 251.00
  L 344.78 251.00
  Q 344.19 251.00 344.19 251.59
  L 344.17 280.46
  Q 344.17 280.75 344.46 280.75
  L 348.21 280.75
  Q 348.45 280.75 348.45 280.51
  Q 348.47 271.37 348.37 262.00
  Q 348.29 254.11 356.20 255.04
  A 0.28 0.27 -86.4 0 0 356.51 254.76
  L 356.50 251.05
  Q 356.50 250.86 356.32 250.85
  Q 352.16 250.65 348.92 253.07
  Q 348.06 253.71 348.39 252.69"
/>
<path stroke="#dc9485" vector-effect="non-scaling-stroke" d="
  M 385.20 263.69
  A 12.84 12.84 0.0 0 0 372.36 250.85
  L 369.92 250.85
  A 12.84 12.84 0.0 0 0 357.08 263.69
  L 357.08 268.05
  A 12.84 12.84 0.0 0 0 369.92 280.89
  L 372.36 280.89
  A 12.84 12.84 0.0 0 0 385.20 268.05
  L 385.20 263.69"
/>
<path stroke="#dccb84" vector-effect="non-scaling-stroke" d="
  M 123.17 271.94
  Q 121.76 276.57 120.35 271.94
  L 114.02 251.22
  A 0.29 0.29 0.0 0 0 113.74 251.01
  L 106.49 251.01
  A 0.20 0.19 -8.6 0 0 106.30 251.26
  L 115.19 280.31
  Q 115.33 280.75 115.78 280.75
  L 127.71 280.75
  Q 128.20 280.75 128.35 280.28
  L 137.22 251.29
  A 0.21 0.21 0.0 0 0 137.02 251.01
  L 129.80 251.01
  Q 129.56 251.01 129.49 251.24
  L 123.17 271.94"
/>
<path stroke="#dccb84" vector-effect="non-scaling-stroke" d="
  M 277.3454 251.3764
  A 0.27 0.27 0.0 0 0 277.0759 251.1060
  L 270.2759 251.0941
  A 0.27 0.27 0.0 0 0 270.0054 251.3636
  L 269.9546 280.4636
  A 0.27 0.27 0.0 0 0 270.2241 280.7340
  L 277.0241 280.7459
  A 0.27 0.27 0.0 0 0 277.2946 280.4764
  L 277.3454 251.3764"
/>
<path stroke="#dccb84" vector-effect="non-scaling-stroke" d="
  M 71.1129 254.2464
  A 0.27 0.27 0.0 0 0 70.8433 253.9760
  L 64.0234 253.9641
  A 0.27 0.27 0.0 0 0 63.7529 254.2336
  L 63.7071 280.4536
  A 0.27 0.27 0.0 0 0 63.9767 280.7240
  L 70.7966 280.7359
  A 0.27 0.27 0.0 0 0 71.0671 280.4664
  L 71.1129 254.2464"
/>
<path stroke="#dccb84" vector-effect="non-scaling-stroke" d="
  M 394.07 280.26
  A 0.31 0.31 0.0 0 0 394.33 280.74
  L 398.70 280.74
  A 0.31 0.31 0.0 0 0 398.96 280.60
  L 409.13 264.88
  A 0.31 0.31 0.0 0 0 408.86 264.40
  L 404.45 264.44
  A 0.31 0.31 0.0 0 0 404.19 264.58
  L 394.07 280.26"
/>
<path stroke="#dc9485" vector-effect="non-scaling-stroke" d="
  M 218.70 122.67
  A 2.63 2.63 0.0 0 0 216.07 120.04
  A 2.63 2.63 0.0 0 0 213.44 122.67
  A 2.63 2.63 0.0 0 0 216.07 125.30
  A 2.63 2.63 0.0 0 0 218.70 122.67"
/>
<path stroke="#dc9485" vector-effect="non-scaling-stroke" d="
  M 213.45 204.18
  A 10.50 10.50 0.0 0 0 202.95 193.68
  A 10.50 10.50 0.0 0 0 192.45 204.18
  A 10.50 10.50 0.0 0 0 202.95 214.68
  A 10.50 10.50 0.0 0 0 213.45 204.18"
/>
<path stroke="#dc9485" vector-effect="non-scaling-stroke" d="
  M 255.48 204.17
  A 10.49 10.49 0.0 0 0 244.99 193.68
  A 10.49 10.49 0.0 0 0 234.50 204.17
  A 10.49 10.49 0.0 0 0 244.99 214.66
  A 10.49 10.49 0.0 0 0 255.48 204.17"
/>
<path stroke="#dc9485" vector-effect="non-scaling-stroke" d="
  M 297.54 204.18
  A 10.50 10.50 0.0 0 0 287.04 193.68
  A 10.50 10.50 0.0 0 0 276.54 204.18
  A 10.50 10.50 0.0 0 0 287.04 214.68
  A 10.50 10.50 0.0 0 0 297.54 204.18"
/>
<path stroke="#dc9485" vector-effect="non-scaling-stroke" d="
  M 205.52 204.13
  A 2.61 2.61 0.0 0 0 202.91 201.52
  A 2.61 2.61 0.0 0 0 200.30 204.13
  A 2.61 2.61 0.0 0 0 202.91 206.74
  A 2.61 2.61 0.0 0 0 205.52 204.13"
/>
<path stroke="#dc9485" vector-effect="non-scaling-stroke" d="
  M 247.63 204.14
  A 2.64 2.64 0.0 0 0 244.99 201.50
  A 2.64 2.64 0.0 0 0 242.35 204.14
  A 2.64 2.64 0.0 0 0 244.99 206.78
  A 2.64 2.64 0.0 0 0 247.63 204.14"
/>
<path stroke="#dc9485" vector-effect="non-scaling-stroke" d="
  M 289.68 204.13
  A 2.61 2.61 0.0 0 0 287.07 201.52
  A 2.61 2.61 0.0 0 0 284.46 204.13
  A 2.61 2.61 0.0 0 0 287.07 206.74
  A 2.61 2.61 0.0 0 0 289.68 204.13"
/>
<path stroke="#dccb84" vector-effect="non-scaling-stroke" d="
  M 145.54 262.04
  L 159.98 262.02
  A 0.19 0.19 0.0 0 0 160.17 261.83
  L 160.17 261.74
  A 6.87 4.02 -0.1 0 0 153.30 257.73
  L 152.22 257.73
  A 6.87 4.02 -0.1 0 0 145.35 261.76
  L 145.35 261.85
  A 0.19 0.19 0.0 0 0 145.54 262.04"
/>
<path stroke="#dccb84" vector-effect="non-scaling-stroke" d="
  M 241.1068 263.8961
  A 6.15 6.15 0.0 0 0 234.9461 257.7569
  L 231.3461 257.7632
  A 6.15 6.15 0.0 0 0 225.2068 263.9239
  L 225.2132 267.5639
  A 6.15 6.15 0.0 0 0 231.3739 273.7031
  L 234.9739 273.6968
  A 6.15 6.15 0.0 0 0 241.1132 267.5361
  L 241.1068 263.8961"
/>
<path stroke="#dc9485" vector-effect="non-scaling-stroke" d="
  M 380.9474 263.2986
  A 8.36 8.36 0.0 0 0 372.5437 254.9825
  L 369.6238 254.9978
  A 8.36 8.36 0.0 0 0 361.3077 263.4014
  L 361.3326 268.1614
  A 8.36 8.36 0.0 0 0 369.7363 276.4775
  L 372.6562 276.4622
  A 8.36 8.36 0.0 0 0 380.9723 268.0586
  L 380.9474 263.2986"
/>
</g>
<path fill="#f9f9f1" d="
  M 0.00 0.00
  L 490.00 0.00
  L 490.00 386.00
  L 0.00 386.00
  L 0.00 0.00
  Z
  M 236.01 130.64
  L 255.78 130.64
  A 1.14 1.13 72.7 0 1 256.72 131.14
  Q 257.99 133.01 259.50 133.01
  Q 268.00 133.05 276.50 133.03
  Q 280.42 133.02 281.59 129.35
  C 282.97 125.04 277.39 123.95 276.64 127.31
  Q 276.53 127.81 276.01 127.81
  L 261.50 127.80
  A 0.55 0.55 0.0 0 1 260.95 127.25
  L 260.94 117.75
  A 0.32 0.31 90.0 0 1 261.25 117.43
  L 275.85 117.44
  Q 276.40 117.44 276.55 117.97
  Q 277.00 119.59 278.75 119.98
  A 2.40 2.40 0.0 0 0 281.63 118.15
  C 282.49 114.14 279.33 112.29 275.65 112.25
  Q 269.20 112.18 262.75 112.26
  Q 258.43 112.31 256.22 114.18
  Q 255.85 114.50 255.37 114.53
  C 243.39 115.28 231.04 114.77 219.02 114.77
  Q 214.67 114.77 213.05 115.35
  C 207.99 117.14 206.68 124.24 210.28 127.98
  Q 214.15 132.01 227.88 145.54
  Q 228.23 145.89 228.65 145.63
  Q 236.14 141.02 244.93 141.18
  Q 245.80 141.20 245.19 140.59
  L 235.78 131.20
  Q 235.22 130.64 236.01 130.64
  Z
  M 270.57 166.84
  C 263.88 139.81 225.79 139.37 219.40 166.80
  Q 219.30 167.25 219.76 167.25
  L 270.25 167.25
  A 0.33 0.33 0.0 0 0 270.57 166.84
  Z
  M 307.18 198.68
  Q 307.33 199.15 307.52 199.64
  Q 307.69 200.09 307.93 199.68
  Q 308.06 199.45 308.07 199.00
  Q 308.08 189.15 308.05 179.29
  C 308.04 175.61 306.74 172.54 302.75 172.54
  Q 244.68 172.53 186.95 172.54
  A 5.01 5.01 0.0 0 0 181.94 177.54
  L 181.93 199.48
  Q 181.92 200.76 182.40 199.57
  C 182.78 198.65 182.85 197.50 183.28 196.53
  Q 189.24 183.04 204.25 183.04
  Q 243.20 183.04 282.15 183.06
  Q 290.59 183.06 294.47 184.51
  Q 303.88 188.02 307.18 198.68
  Z
  M 302.6692 203.6093
  A 15.34 15.34 0.0 0 0 287.3024 188.2961
  L 202.6225 188.4439
  A 15.34 15.34 0.0 0 0 187.3093 203.8107
  L 187.3108 204.6707
  A 15.34 15.34 0.0 0 0 202.6776 219.9839
  L 287.3575 219.8361
  A 15.34 15.34 0.0 0 0 302.6707 204.4693
  L 302.6692 203.6093
  Z
  M 71.14 244.52
  A 0.26 0.26 0.0 0 0 70.88 244.26
  L 63.96 244.26
  A 0.26 0.26 0.0 0 0 63.70 244.52
  L 63.70 251.44
  A 0.26 0.26 0.0 0 0 63.96 251.70
  L 70.88 251.70
  A 0.26 0.26 0.0 0 0 71.14 251.44
  L 71.14 244.52
  Z
  M 211.49 258.50
  L 214.90 258.50
  Q 216.06 258.50 216.06 257.35
  L 216.08 251.79
  Q 216.08 251.00 215.29 251.00
  L 211.49 251.00
  Q 210.98 251.00 210.98 250.49
  L 210.96 244.48
  Q 210.96 244.25 210.73 244.25
  L 203.78 244.25
  Q 203.54 244.25 203.54 244.49
  Q 203.49 256.10 203.54 267.89
  C 203.59 276.81 205.20 280.68 214.71 280.87
  Q 216.05 280.90 216.05 279.56
  L 216.06 274.41
  Q 216.06 273.27 214.91 273.26
  L 211.59 273.22
  Q 210.98 273.21 210.98 272.59
  L 210.97 259.01
  Q 210.97 258.50 211.49 258.50
  Z
  M 277.3965 244.5135
  A 0.26 0.26 0.0 0 0 277.1360 244.2540
  L 270.2360 244.2660
  A 0.26 0.26 0.0 0 0 269.9765 244.5265
  L 269.9835 248.5665
  A 0.26 0.26 0.0 0 0 270.2440 248.8260
  L 277.1440 248.8140
  A 0.26 0.26 0.0 0 0 277.4035 248.5535
  L 277.3965 244.5135
  Z
  M 320.14 266.50
  C 324.59 266.51 330.28 266.96 333.98 265.74
  C 342.58 262.91 343.39 248.95 335.25 245.42
  C 330.64 243.41 321.60 244.23 315.71 244.26
  Q 315.36 244.26 315.36 244.61
  L 315.33 248.06
  A 0.44 0.43 90.0 0 0 315.76 248.50
  Q 323.06 248.50 330.75 248.70
  Q 336.26 248.84 336.53 254.75
  C 336.84 261.57 333.19 262.19 327.29 262.21
  Q 321.59 262.23 315.84 262.26
  Q 315.35 262.27 315.35 262.75
  L 315.33 280.29
  A 0.46 0.46 0.0 0 0 315.79 280.75
  L 319.27 280.76
  A 0.36 0.36 0.0 0 0 319.63 280.40
  L 319.62 267.02
  Q 319.62 266.50 320.14 266.50
  Z
  M 420.29 244.23
  A 0.31 0.31 0.0 0 0 420.04 244.36
  L 410.41 257.67
  A 0.31 0.31 0.0 0 1 409.91 257.67
  L 400.01 244.37
  A 0.31 0.31 0.0 0 0 399.76 244.25
  L 395.11 244.24
  A 0.31 0.31 0.0 0 0 394.86 244.73
  L 420.91 280.62
  A 0.31 0.31 0.0 0 0 421.16 280.75
  L 425.67 280.76
  A 0.31 0.31 0.0 0 0 425.92 280.27
  L 412.92 261.92
  A 0.31 0.31 0.0 0 1 412.92 261.56
  L 425.01 244.76
  A 0.31 0.31 0.0 0 0 424.76 244.27
  L 420.29 244.23
  Z
  M 81.76 252.48
  L 81.79 251.53
  Q 81.81 251.00 81.28 251.00
  L 74.97 251.00
  Q 74.44 251.00 74.44 251.53
  L 74.43 280.47
  Q 74.43 280.76 74.72 280.76
  L 81.50 280.75
  A 0.30 0.30 0.0 0 0 81.80 280.45
  Q 81.77 271.69 81.82 262.51
  C 81.83 259.23 84.13 257.96 87.18 257.98
  C 89.48 257.99 93.29 257.44 94.45 260.07
  Q 95.61 262.71 95.57 266.50
  Q 95.51 273.69 95.48 280.29
  Q 95.48 280.75 95.94 280.75
  L 102.49 280.75
  Q 102.89 280.75 102.89 280.35
  Q 102.89 273.18 102.93 265.56
  C 102.99 253.76 96.30 248.84 85.01 251.31
  C 83.98 251.54 83.22 252.32 82.26 252.80
  Q 81.75 253.06 81.76 252.48
  Z
  M 146.45 268.25
  L 167.26 268.25
  Q 167.80 268.25 167.83 267.71
  C 168.27 260.81 166.12 253.64 158.67 251.59
  C 151.25 249.55 141.13 250.97 138.59 259.55
  C 136.92 265.16 137.33 273.29 141.97 277.42
  C 149.16 283.80 165.12 282.33 167.07 271.16
  Q 167.14 270.75 166.72 270.75
  L 160.28 270.75
  Q 159.81 270.75 159.52 271.11
  C 157.02 274.22 153.51 274.11 149.68 273.51
  A 5.03 5.02 -11.8 0 1 146.22 271.25
  L 145.46 270.06
  Q 144.29 268.25 146.45 268.25
  Z
  M 178.60 252.29
  L 178.69 251.51
  A 0.44 0.43 -86.5 0 0 178.26 251.02
  L 171.73 251.00
  Q 171.20 251.00 171.20 251.52
  L 171.20 280.48
  A 0.28 0.27 0.0 0 0 171.48 280.75
  L 178.25 280.75
  A 0.29 0.28 0.0 0 0 178.54 280.47
  Q 178.57 272.85 178.31 264.76
  C 178.09 257.75 181.88 257.87 187.37 258.01
  C 191.63 258.13 192.21 261.96 192.22 265.50
  Q 192.26 273.18 192.24 280.30
  Q 192.24 280.76 192.70 280.76
  L 199.24 280.75
  Q 199.64 280.75 199.64 280.35
  Q 199.71 273.06 199.71 265.25
  C 199.70 256.09 196.04 250.79 186.38 250.74
  Q 182.55 250.72 179.09 252.62
  Q 178.52 252.93 178.60 252.29
  Z
  M 240.69 253.92
  C 232.68 247.56 221.35 251.45 218.83 261.25
  C 216.78 269.21 220.34 278.60 229.05 280.58
  Q 235.69 282.08 240.07 278.03
  Q 241.07 277.10 241.06 278.47
  L 241.04 280.15
  Q 241.04 280.76 241.65 280.76
  L 247.99 280.75
  Q 248.48 280.75 248.48 280.26
  L 248.48 251.99
  Q 248.48 251.00 247.49 251.00
  L 242.03 251.01
  Q 241.07 251.01 241.08 251.97
  L 241.09 253.72
  Q 241.09 254.23 240.69 253.92
  Z
  M 259.26 252.37
  Q 259.25 251.95 259.08 251.55
  Q 258.85 251.01 258.26 251.01
  L 252.24 251.00
  Q 251.74 251.00 251.74 251.51
  L 251.73 280.49
  Q 251.73 280.76 251.99 280.76
  L 258.77 280.75
  A 0.37 0.36 -0.8 0 0 259.14 280.38
  Q 259.02 266.87 259.16 262.50
  Q 259.33 257.04 266.32 258.06
  A 0.27 0.27 0.0 0 0 266.63 257.79
  L 266.64 251.08
  Q 266.64 250.90 266.46 250.88
  Q 262.76 250.54 259.86 252.67
  Q 259.28 253.10 259.26 252.37
  Z
  M 298.80 259.00
  Q 299.02 259.45 299.07 259.94
  A 0.64 0.63 86.4 0 0 299.70 260.50
  L 305.33 260.50
  Q 305.95 260.50 305.92 259.87
  C 305.38 250.73 296.16 250.29 289.27 250.90
  Q 279.54 251.76 281.07 261.47
  C 282.11 268.09 292.46 268.68 297.85 269.67
  A 2.02 2.02 0.0 0 1 299.49 271.41
  Q 299.74 273.50 297.48 273.61
  Q 294.00 273.80 290.50 273.81
  Q 287.25 273.82 287.52 271.35
  A 0.55 0.54 -87.1 0 0 286.98 270.75
  L 281.25 270.75
  Q 280.65 270.75 280.68 271.35
  Q 281.09 279.92 290.04 280.81
  C 296.58 281.45 305.21 281.16 306.24 273.51
  Q 307.37 265.10 299.07 263.14
  Q 293.91 261.93 288.51 260.68
  A 1.39 1.39 0.0 0 1 287.94 258.25
  Q 288.53 257.76 289.48 257.78
  C 292.49 257.82 295.07 257.51 298.01 258.34
  Q 298.55 258.50 298.80 259.00
  Z
  M 348.39 252.69
  Q 348.57 252.11 348.48 251.46
  Q 348.42 251.00 347.96 251.00
  L 344.78 251.00
  Q 344.19 251.00 344.19 251.59
  L 344.17 280.46
  Q 344.17 280.75 344.46 280.75
  L 348.21 280.75
  Q 348.45 280.75 348.45 280.51
  Q 348.47 271.37 348.37 262.00
  Q 348.29 254.11 356.20 255.04
  A 0.28 0.27 -86.4 0 0 356.51 254.76
  L 356.50 251.05
  Q 356.50 250.86 356.32 250.85
  Q 352.16 250.65 348.92 253.07
  Q 348.06 253.71 348.39 252.69
  Z
  M 385.20 263.69
  A 12.84 12.84 0.0 0 0 372.36 250.85
  L 369.92 250.85
  A 12.84 12.84 0.0 0 0 357.08 263.69
  L 357.08 268.05
  A 12.84 12.84 0.0 0 0 369.92 280.89
  L 372.36 280.89
  A 12.84 12.84 0.0 0 0 385.20 268.05
  L 385.20 263.69
  Z
  M 123.17 271.94
  Q 121.76 276.57 120.35 271.94
  L 114.02 251.22
  A 0.29 0.29 0.0 0 0 113.74 251.01
  L 106.49 251.01
  A 0.20 0.19 -8.6 0 0 106.30 251.26
  L 115.19 280.31
  Q 115.33 280.75 115.78 280.75
  L 127.71 280.75
  Q 128.20 280.75 128.35 280.28
  L 137.22 251.29
  A 0.21 0.21 0.0 0 0 137.02 251.01
  L 129.80 251.01
  Q 129.56 251.01 129.49 251.24
  L 123.17 271.94
  Z
  M 277.3454 251.3764
  A 0.27 0.27 0.0 0 0 277.0759 251.1060
  L 270.2759 251.0941
  A 0.27 0.27 0.0 0 0 270.0054 251.3636
  L 269.9546 280.4636
  A 0.27 0.27 0.0 0 0 270.2241 280.7340
  L 277.0241 280.7459
  A 0.27 0.27 0.0 0 0 277.2946 280.4764
  L 277.3454 251.3764
  Z
  M 71.1129 254.2464
  A 0.27 0.27 0.0 0 0 70.8433 253.9760
  L 64.0234 253.9641
  A 0.27 0.27 0.0 0 0 63.7529 254.2336
  L 63.7071 280.4536
  A 0.27 0.27 0.0 0 0 63.9767 280.7240
  L 70.7966 280.7359
  A 0.27 0.27 0.0 0 0 71.0671 280.4664
  L 71.1129 254.2464
  Z
  M 394.07 280.26
  A 0.31 0.31 0.0 0 0 394.33 280.74
  L 398.70 280.74
  A 0.31 0.31 0.0 0 0 398.96 280.60
  L 409.13 264.88
  A 0.31 0.31 0.0 0 0 408.86 264.40
  L 404.45 264.44
  A 0.31 0.31 0.0 0 0 404.19 264.58
  L 394.07 280.26
  Z"
/>
<path fill="#bf2e18" d="
  M 236.01 130.64
  Q 235.22 130.64 235.78 131.20
  L 245.19 140.59
  Q 245.80 141.20 244.93 141.18
  Q 236.14 141.02 228.65 145.63
  Q 228.23 145.89 227.88 145.54
  Q 214.15 132.01 210.28 127.98
  C 206.68 124.24 207.99 117.14 213.05 115.35
  Q 214.67 114.77 219.02 114.77
  C 231.04 114.77 243.39 115.28 255.37 114.53
  Q 255.85 114.50 256.22 114.18
  Q 258.43 112.31 262.75 112.26
  Q 269.20 112.18 275.65 112.25
  C 279.33 112.29 282.49 114.14 281.63 118.15
  A 2.40 2.40 0.0 0 1 278.75 119.98
  Q 277.00 119.59 276.55 117.97
  Q 276.40 117.44 275.85 117.44
  L 261.25 117.43
  A 0.32 0.31 90.0 0 0 260.94 117.75
  L 260.95 127.25
  A 0.55 0.55 0.0 0 0 261.50 127.80
  L 276.01 127.81
  Q 276.53 127.81 276.64 127.31
  C 277.39 123.95 282.97 125.04 281.59 129.35
  Q 280.42 133.02 276.50 133.03
  Q 268.00 133.05 259.50 133.01
  Q 257.99 133.01 256.72 131.14
  A 1.14 1.13 72.7 0 0 255.78 130.64
  L 236.01 130.64
  Z
  M 218.70 122.67
  A 2.63 2.63 0.0 0 0 216.07 120.04
  A 2.63 2.63 0.0 0 0 213.44 122.67
  A 2.63 2.63 0.0 0 0 216.07 125.30
  A 2.63 2.63 0.0 0 0 218.70 122.67
  Z"
/>
<circle fill="#f9f9f1" cx="216.07" cy="122.67" r="2.63"/>
<path fill="#bf2e18" d="
  M 219.40 166.80
  C 225.79 139.37 263.88 139.81 270.57 166.84
  A 0.33 0.33 0.0 0 1 270.25 167.25
  L 219.76 167.25
  Q 219.30 167.25 219.40 166.80
  Z"
/>
<path fill="#bf2e18" d="
  M 307.18 198.68
  Q 303.88 188.02 294.47 184.51
  Q 290.59 183.06 282.15 183.06
  Q 243.20 183.04 204.25 183.04
  Q 189.24 183.04 183.28 196.53
  C 182.85 197.50 182.78 198.65 182.40 199.57
  Q 181.92 200.76 181.93 199.48
  L 181.94 177.54
  A 5.01 5.01 0.0 0 1 186.95 172.54
  Q 244.68 172.53 302.75 172.54
  C 306.74 172.54 308.04 175.61 308.05 179.29
  Q 308.08 189.15 308.07 199.00
  Q 308.06 199.45 307.93 199.68
  Q 307.69 200.09 307.52 199.64
  Q 307.33 199.15 307.18 198.68
  Z"
/>
<path fill="#bf2e18" d="
  M 302.6707 204.4693
  A 15.34 15.34 0.0 0 1 287.3575 219.8361
  L 202.6776 219.9839
  A 15.34 15.34 0.0 0 1 187.3108 204.6707
  L 187.3093 203.8107
  A 15.34 15.34 0.0 0 1 202.6225 188.4439
  L 287.3024 188.2961
  A 15.34 15.34 0.0 0 1 302.6692 203.6093
  L 302.6707 204.4693
  Z
  M 213.45 204.18
  A 10.50 10.50 0.0 0 0 202.95 193.68
  A 10.50 10.50 0.0 0 0 192.45 204.18
  A 10.50 10.50 0.0 0 0 202.95 214.68
  A 10.50 10.50 0.0 0 0 213.45 204.18
  Z
  M 255.48 204.17
  A 10.49 10.49 0.0 0 0 244.99 193.68
  A 10.49 10.49 0.0 0 0 234.50 204.17
  A 10.49 10.49 0.0 0 0 244.99 214.66
  A 10.49 10.49 0.0 0 0 255.48 204.17
  Z
  M 297.54 204.18
  A 10.50 10.50 0.0 0 0 287.04 193.68
  A 10.50 10.50 0.0 0 0 276.54 204.18
  A 10.50 10.50 0.0 0 0 287.04 214.68
  A 10.50 10.50 0.0 0 0 297.54 204.18
  Z"
/>
<path fill="#f9f9f1" d="
  M 213.45 204.18
  A 10.50 10.50 0.0 0 1 202.95 214.68
  A 10.50 10.50 0.0 0 1 192.45 204.18
  A 10.50 10.50 0.0 0 1 202.95 193.68
  A 10.50 10.50 0.0 0 1 213.45 204.18
  Z
  M 205.52 204.13
  A 2.61 2.61 0.0 0 0 202.91 201.52
  A 2.61 2.61 0.0 0 0 200.30 204.13
  A 2.61 2.61 0.0 0 0 202.91 206.74
  A 2.61 2.61 0.0 0 0 205.52 204.13
  Z"
/>
<path fill="#f9f9f1" d="
  M 255.48 204.17
  A 10.49 10.49 0.0 0 1 244.99 214.66
  A 10.49 10.49 0.0 0 1 234.50 204.17
  A 10.49 10.49 0.0 0 1 244.99 193.68
  A 10.49 10.49 0.0 0 1 255.48 204.17
  Z
  M 247.63 204.14
  A 2.64 2.64 0.0 0 0 244.99 201.50
  A 2.64 2.64 0.0 0 0 242.35 204.14
  A 2.64 2.64 0.0 0 0 244.99 206.78
  A 2.64 2.64 0.0 0 0 247.63 204.14
  Z"
/>
<path fill="#f9f9f1" d="
  M 297.54 204.18
  A 10.50 10.50 0.0 0 1 287.04 214.68
  A 10.50 10.50 0.0 0 1 276.54 204.18
  A 10.50 10.50 0.0 0 1 287.04 193.68
  A 10.50 10.50 0.0 0 1 297.54 204.18
  Z
  M 289.68 204.13
  A 2.61 2.61 0.0 0 0 287.07 201.52
  A 2.61 2.61 0.0 0 0 284.46 204.13
  A 2.61 2.61 0.0 0 0 287.07 206.74
  A 2.61 2.61 0.0 0 0 289.68 204.13
  Z"
/>
<circle fill="#bf2e18" cx="202.91" cy="204.13" r="2.61"/>
<circle fill="#bf2e18" cx="244.99" cy="204.14" r="2.64"/>
<circle fill="#bf2e18" cx="287.07" cy="204.13" r="2.61"/>
<rect fill="#bf2e18" x="63.70" y="244.26" width="7.44" height="7.44" rx="0.26"/>
<path fill="#be9c17" d="
  M 210.97 259.01
  L 210.98 272.59
  Q 210.98 273.21 211.59 273.22
  L 214.91 273.26
  Q 216.06 273.27 216.06 274.41
  L 216.05 279.56
  Q 216.05 280.90 214.71 280.87
  C 205.20 280.68 203.59 276.81 203.54 267.89
  Q 203.49 256.10 203.54 244.49
  Q 203.54 244.25 203.78 244.25
  L 210.73 244.25
  Q 210.96 244.25 210.96 244.48
  L 210.98 250.49
  Q 210.98 251.00 211.49 251.00
  L 215.29 251.00
  Q 216.08 251.00 216.08 251.79
  L 216.06 257.35
  Q 216.06 258.50 214.90 258.50
  L 211.49 258.50
  Q 210.97 258.50 210.97 259.01
  Z"
/>
<rect fill="#bf2e18" x="-3.71" y="-2.28" transform="translate(273.69,246.54) rotate(-0.1)" width="7.42" height="4.56" rx="0.26"/>
<path fill="#bf2e18" d="
  M 319.62 267.02
  L 319.63 280.40
  A 0.36 0.36 0.0 0 1 319.27 280.76
  L 315.79 280.75
  A 0.46 0.46 0.0 0 1 315.33 280.29
  L 315.35 262.75
  Q 315.35 262.27 315.84 262.26
  Q 321.59 262.23 327.29 262.21
  C 333.19 262.19 336.84 261.57 336.53 254.75
  Q 336.26 248.84 330.75 248.70
  Q 323.06 248.50 315.76 248.50
  A 0.44 0.43 -90.0 0 1 315.33 248.06
  L 315.36 244.61
  Q 315.36 244.26 315.71 244.26
  C 321.60 244.23 330.64 243.41 335.25 245.42
  C 343.39 248.95 342.58 262.91 333.98 265.74
  C 330.28 266.96 324.59 266.51 320.14 266.50
  Q 319.62 266.50 319.62 267.02
  Z"
/>
<path fill="#bf2e18" d="
  M 420.29 244.23
  L 424.76 244.27
  A 0.31 0.31 0.0 0 1 425.01 244.76
  L 412.92 261.56
  A 0.31 0.31 0.0 0 0 412.92 261.92
  L 425.92 280.27
  A 0.31 0.31 0.0 0 1 425.67 280.76
  L 421.16 280.75
  A 0.31 0.31 0.0 0 1 420.91 280.62
  L 394.86 244.73
  A 0.31 0.31 0.0 0 1 395.11 244.24
  L 399.76 244.25
  A 0.31 0.31 0.0 0 1 400.01 244.37
  L 409.91 257.67
  A 0.31 0.31 0.0 0 0 410.41 257.67
  L 420.04 244.36
  A 0.31 0.31 0.0 0 1 420.29 244.23
  Z"
/>
<path fill="#be9c17" d="
  M 82.26 252.80
  C 83.22 252.32 83.98 251.54 85.01 251.31
  C 96.30 248.84 102.99 253.76 102.93 265.56
  Q 102.89 273.18 102.89 280.35
  Q 102.89 280.75 102.49 280.75
  L 95.94 280.75
  Q 95.48 280.75 95.48 280.29
  Q 95.51 273.69 95.57 266.50
  Q 95.61 262.71 94.45 260.07
  C 93.29 257.44 89.48 257.99 87.18 257.98
  C 84.13 257.96 81.83 259.23 81.82 262.51
  Q 81.77 271.69 81.80 280.45
  A 0.30 0.30 0.0 0 1 81.50 280.75
  L 74.72 280.76
  Q 74.43 280.76 74.43 280.47
  L 74.44 251.53
  Q 74.44 251.00 74.97 251.00
  L 81.28 251.00
  Q 81.81 251.00 81.79 251.53
  L 81.76 252.48
  Q 81.75 253.06 82.26 252.80
  Z"
/>
<path fill="#be9c17" d="
  M 146.45 268.25
  Q 144.29 268.25 145.46 270.06
  L 146.22 271.25
  A 5.03 5.02 -11.8 0 0 149.68 273.51
  C 153.51 274.11 157.02 274.22 159.52 271.11
  Q 159.81 270.75 160.28 270.75
  L 166.72 270.75
  Q 167.14 270.75 167.07 271.16
  C 165.12 282.33 149.16 283.80 141.97 277.42
  C 137.33 273.29 136.92 265.16 138.59 259.55
  C 141.13 250.97 151.25 249.55 158.67 251.59
  C 166.12 253.64 168.27 260.81 167.83 267.71
  Q 167.80 268.25 167.26 268.25
  L 146.45 268.25
  Z
  M 145.54 262.04
  L 159.98 262.02
  A 0.19 0.19 0.0 0 0 160.17 261.83
  L 160.17 261.74
  A 6.87 4.02 -0.1 0 0 153.30 257.73
  L 152.22 257.73
  A 6.87 4.02 -0.1 0 0 145.35 261.76
  L 145.35 261.85
  A 0.19 0.19 0.0 0 0 145.54 262.04
  Z"
/>
<path fill="#be9c17" d="
  M 179.09 252.62
  Q 182.55 250.72 186.38 250.74
  C 196.04 250.79 199.70 256.09 199.71 265.25
  Q 199.71 273.06 199.64 280.35
  Q 199.64 280.75 199.24 280.75
  L 192.70 280.76
  Q 192.24 280.76 192.24 280.30
  Q 192.26 273.18 192.22 265.50
  C 192.21 261.96 191.63 258.13 187.37 258.01
  C 181.88 257.87 178.09 257.75 178.31 264.76
  Q 178.57 272.85 178.54 280.47
  A 0.29 0.28 0.0 0 1 178.25 280.75
  L 171.48 280.75
  A 0.28 0.27 -0.0 0 1 171.20 280.48
  L 171.20 251.52
  Q 171.20 251.00 171.73 251.00
  L 178.26 251.02
  A 0.44 0.43 -86.5 0 1 178.69 251.51
  L 178.60 252.29
  Q 178.52 252.93 179.09 252.62
  Z"
/>
<path fill="#be9c17" d="
  M 241.09 253.72
  L 241.08 251.97
  Q 241.07 251.01 242.03 251.01
  L 247.49 251.00
  Q 248.48 251.00 248.48 251.99
  L 248.48 280.26
  Q 248.48 280.75 247.99 280.75
  L 241.65 280.76
  Q 241.04 280.76 241.04 280.15
  L 241.06 278.47
  Q 241.07 277.10 240.07 278.03
  Q 235.69 282.08 229.05 280.58
  C 220.34 278.60 216.78 269.21 218.83 261.25
  C 221.35 251.45 232.68 247.56 240.69 253.92
  Q 241.09 254.23 241.09 253.72
  Z
  M 241.1068 263.8961
  A 6.15 6.15 0.0 0 0 234.9461 257.7569
  L 231.3461 257.7632
  A 6.15 6.15 0.0 0 0 225.2068 263.9239
  L 225.2132 267.5639
  A 6.15 6.15 0.0 0 0 231.3739 273.7031
  L 234.9739 273.6968
  A 6.15 6.15 0.0 0 0 241.1132 267.5361
  L 241.1068 263.8961
  Z"
/>
<path fill="#be9c17" d="
  M 259.86 252.67
  Q 262.76 250.54 266.46 250.88
  Q 266.64 250.90 266.64 251.08
  L 266.63 257.79
  A 0.27 0.27 0.0 0 1 266.32 258.06
  Q 259.33 257.04 259.16 262.50
  Q 259.02 266.87 259.14 280.38
  A 0.37 0.36 -0.8 0 1 258.77 280.75
  L 251.99 280.76
  Q 251.73 280.76 251.73 280.49
  L 251.74 251.51
  Q 251.74 251.00 252.24 251.00
  L 258.26 251.01
  Q 258.85 251.01 259.08 251.55
  Q 259.25 251.95 259.26 252.37
  Q 259.28 253.10 259.86 252.67
  Z"
/>
<path fill="#be9c17" d="
  M 298.01 258.34
  C 295.07 257.51 292.49 257.82 289.48 257.78
  Q 288.53 257.76 287.94 258.25
  A 1.39 1.39 0.0 0 0 288.51 260.68
  Q 293.91 261.93 299.07 263.14
  Q 307.37 265.10 306.24 273.51
  C 305.21 281.16 296.58 281.45 290.04 280.81
  Q 281.09 279.92 280.68 271.35
  Q 280.65 270.75 281.25 270.75
  L 286.98 270.75
  A 0.55 0.54 -87.1 0 1 287.52 271.35
  Q 287.25 273.82 290.50 273.81
  Q 294.00 273.80 297.48 273.61
  Q 299.74 273.50 299.49 271.41
  A 2.02 2.02 0.0 0 0 297.85 269.67
  C 292.46 268.68 282.11 268.09 281.07 261.47
  Q 279.54 251.76 289.27 250.90
  C 296.16 250.29 305.38 250.73 305.92 259.87
  Q 305.95 260.50 305.33 260.50
  L 299.70 260.50
  A 0.64 0.63 86.4 0 1 299.07 259.94
  Q 299.02 259.45 298.80 259.00
  Q 298.55 258.50 298.01 258.34
  Z"
/>
<path fill="#bf2e18" d="
  M 348.92 253.07
  Q 352.16 250.65 356.32 250.85
  Q 356.50 250.86 356.50 251.05
  L 356.51 254.76
  A 0.28 0.27 -86.4 0 1 356.20 255.04
  Q 348.29 254.11 348.37 262.00
  Q 348.47 271.37 348.45 280.51
  Q 348.45 280.75 348.21 280.75
  L 344.46 280.75
  Q 344.17 280.75 344.17 280.46
  L 344.19 251.59
  Q 344.19 251.00 344.78 251.00
  L 347.96 251.00
  Q 348.42 251.00 348.48 251.46
  Q 348.57 252.11 348.39 252.69
  Q 348.06 253.71 348.92 253.07
  Z"
/>
<path fill="#bf2e18" d="
  M 385.20 268.05
  A 12.84 12.84 0.0 0 1 372.36 280.89
  L 369.92 280.89
  A 12.84 12.84 0.0 0 1 357.08 268.05
  L 357.08 263.69
  A 12.84 12.84 0.0 0 1 369.92 250.85
  L 372.36 250.85
  A 12.84 12.84 0.0 0 1 385.20 263.69
  L 385.20 268.05
  Z
  M 380.9474 263.2986
  A 8.36 8.36 0.0 0 0 372.5437 254.9825
  L 369.6238 254.9978
  A 8.36 8.36 0.0 0 0 361.3077 263.4014
  L 361.3326 268.1614
  A 8.36 8.36 0.0 0 0 369.7363 276.4775
  L 372.6562 276.4622
  A 8.36 8.36 0.0 0 0 380.9723 268.0586
  L 380.9474 263.2986
  Z"
/>
<path fill="#be9c17" d="
  M 123.17 271.94
  L 129.49 251.24
  Q 129.56 251.01 129.80 251.01
  L 137.02 251.01
  A 0.21 0.21 0.0 0 1 137.22 251.29
  L 128.35 280.28
  Q 128.20 280.75 127.71 280.75
  L 115.78 280.75
  Q 115.33 280.75 115.19 280.31
  L 106.30 251.26
  A 0.20 0.19 -8.6 0 1 106.49 251.01
  L 113.74 251.01
  A 0.29 0.29 0.0 0 1 114.02 251.22
  L 120.35 271.94
  Q 121.76 276.57 123.17 271.94
  Z"
/>
<rect fill="#be9c17" x="-3.67" y="-14.82" transform="translate(273.65,265.92) rotate(0.1)" width="7.34" height="29.64" rx="0.27"/>
<rect fill="#be9c17" x="-3.68" y="-13.38" transform="translate(67.41,267.35) rotate(0.1)" width="7.36" height="26.76" rx="0.27"/>
<rect fill="#f9f9f1" x="-9.82" y="-10.74" transform="translate(371.14,265.73) rotate(-0.3)" width="19.64" height="21.48" rx="8.36"/>
<path fill="#f9f9f1" d="
  M 145.54 262.04
  A 0.19 0.19 0.0 0 1 145.35 261.85
  L 145.35 261.76
  A 6.87 4.02 -0.1 0 1 152.22 257.73
  L 153.30 257.73
  A 6.87 4.02 -0.1 0 1 160.17 261.74
  L 160.17 261.83
  A 0.19 0.19 0.0 0 1 159.98 262.02
  L 145.54 262.04
  Z"
/>
<rect fill="#f9f9f1" x="-7.95" y="-7.97" transform="translate(233.16,265.73) rotate(-0.1)" width="15.90" height="15.94" rx="6.15"/>
<path fill="#be9c17" d="
  M 394.07 280.26
  L 404.19 264.58
  A 0.31 0.31 0.0 0 1 404.45 264.44
  L 408.86 264.40
  A 0.31 0.31 0.0 0 1 409.13 264.88
  L 398.96 280.60
  A 0.31 0.31 0.0 0 1 398.70 280.74
  L 394.33 280.74
  A 0.31 0.31 0.0 0 1 394.07 280.26
  Z"
/>
</svg>
